# xmcd
#
# Track frame offsets:
#  150
#  14418
#  27178
#  37978
#  50540
#  62053
#  77117
#  87656
#
# Disc length: 1336 seconds
#
# Revision: 0
# Processed by: cddbd v1.5.1PL0 Copyright (c) Steve Scherf et al.
# Submitted via: Collectorz.com Music Collector 6.9
#
DISCID=60053608
DTITLE=7 Roads To Downtown - 7 Roads To Downtown
DYEAR=2005
DGENRE=Blues
TTITLE0=Guilty
TTITLE1=Times Behind
TTITLE2=Birds
TTITLE3=Lets
TTITLE4=Scarlett
TTITLE5=How Have You Been Lately?
TTITLE6=Beer Or Wine
TTITLE7=Before I Leave
EXTD=
EXTT0=
EXTT1=
EXTT2=
EXTT3=
EXTT4=
EXTT5=
EXTT6=
EXTT7=
PLAYORDER=
